Coordinates
version=1
nRows=13
nColumns=63
inDegrees=yes

Units are S.I. units (second, meters, Newtons, ...)
If the header above contains a line with 'inDegrees', this indicates whether rotational values are in degrees (yes) or radians (no).

endheader
time	pelvis_tilt	pelvis_list	pelvis_rotation	pelvis_tx	pelvis_ty	pelvis_tz	hip_flexion_r	hip_adduction_r	hip_rotation_r	knee_angle_r	knee_angle_r_beta	ankle_angle_r	subtalar_angle_r	mtp_angle_r	hip_flexion_l	hip_adduction_l	hip_rotation_l	knee_angle_l	knee_angle_l_beta	ankle_angle_l	subtalar_angle_l	mtp_angle_l	L5_S1_Flex_Ext	L5_S1_Lat_Bending	L5_S1_axial_rotation	L4_L5_Flex_Ext	L4_L5_Lat_Bending	L4_L5_axial_rotation	L3_L4_Flex_Ext	L3_L4_Lat_Bending	L3_L4_axial_rotation	L2_L3_Flex_Ext	L2_L3_Lat_Bending	L2_L3_axial_rotation	L1_L2_Flex_Ext	L1_L2_Lat_Bending	L1_L2_axial_rotation	L1_T12_Flex_Ext	L1_T12_Lat_Bending	L1_T12_axial_rotation	Abs_r3	Abs_r2	Abs_r1	Abs_t1	Abs_t2	neck_flexion	neck_bending	neck_rotation	arm_flex_r	arm_add_r	arm_rot_r	elbow_flex_r	pro_sup_r	wrist_flex_r	wrist_dev_r	arm_flex_l	arm_add_l	arm_rot_l	elbow_flex_l	pro_sup_l	wrist_flex_l	wrist_dev_l
12.050000	-3.473186	-5.317094	88.776292	0.253297	0.777749	0.681725	2.486721	-3.493977	12.874093	4.657881	0.081295	16.517378	-8.898046	0.000000	3.780549	2.106480	-7.170105	9.366373	0.163474	23.850364	5.711947	0.000000	-0.013668	-0.335692	2.514501	-0.025384	-0.446470	2.671657	-0.022456	-0.816201	2.671657	-0.015622	-0.816201	2.200188	-0.012693	-0.684543	2.043032	-0.007810	-0.519987	1.885876	-0.097632	-3.797414	13.984899	0.000000	0.000000	26.510822	1.741753	-3.100868	-0.315088	-10.179697	30.804498	50.562410	76.200209	12.059298	10.157259	19.287929	-12.841310	73.779556	46.890527	80.536843	8.233166	-9.493588
12.066667	-3.500305	-5.286457	89.022051	0.252794	0.777759	0.681291	2.466727	-3.543687	12.515933	4.863535	0.084885	16.681654	-8.808472	0.000000	3.725401	2.175281	-6.833352	9.339752	0.163009	23.762829	5.580957	0.000000	-0.015585	-0.336470	2.487427	-0.028943	-0.447505	2.642892	-0.025605	-0.818094	2.642892	-0.017812	-0.818094	2.176499	-0.014472	-0.686130	2.021035	-0.008905	-0.521192	1.865571	-0.111322	-3.806218	13.834325	0.000000	0.000000	26.630357	1.456891	-3.463481	-0.452739	-10.180213	30.622320	50.622390	76.271172	12.054618	10.099431	19.246591	-12.808607	73.912132	46.877413	81.295261	8.076412	-9.813164
12.083333	-3.521510	-5.248739	89.242354	0.252294	0.777802	0.680858	2.458437	-3.586903	12.119486	5.087235	0.088789	16.892961	-8.600125	0.000000	3.663081	2.227452	-6.650974	9.336426	0.162951	23.683509	5.572533	0.000000	-0.018809	-0.336254	2.466965	-0.034930	-0.447217	2.621150	-0.030901	-0.817567	2.621150	-0.021497	-0.817567	2.158594	-0.017466	-0.685688	2.004409	-0.010747	-0.520857	1.850224	-0.134351	-3.803768	13.720519	0.000000	0.000000	26.719732	1.156884	-3.865541	-0.598209	-10.189778	30.423179	50.690218	76.361854	12.071584	10.075047	19.250529	-12.747020	74.110119	46.825123	81.783360	8.077172	-10.039970
12.100000	-3.532472	-5.206718	89.450652	0.251780	0.777877	0.680446	2.461141	-3.618776	11.692087	5.322958	0.092903	17.143878	-8.300592	0.000000	3.602713	2.261197	-6.587907	9.361758	0.163393	23.601440	5.647215	0.000000	-0.022716	-0.334284	2.445367	-0.042185	-0.444598	2.598202	-0.037320	-0.812778	2.598202	-0.025962	-0.812778	2.139696	-0.021094	-0.681672	1.986860	-0.012980	-0.517806	1.834025	-0.162257	-3.781488	13.600396	0.000000	0.000000	26.768536	0.873021	-4.267824	-0.718142	-10.216130	30.284548	50.738932	76.415776	12.127791	10.097203	19.276071	-12.669803	74.334446	46.742476	82.088188	8.146873	-10.223384
12.116667	-3.529028	-5.149627	89.662233	0.251239	0.777992	0.680072	2.467714	-3.645618	11.027868	5.583295	0.097447	17.505210	-7.630677	0.000000	3.537740	2.273487	-6.619258	9.418453	0.164383	23.524959	5.807895	0.000000	-0.029322	-0.330618	2.422948	-0.054454	-0.439722	2.574383	-0.048173	-0.803864	2.574383	-0.033512	-0.803864	2.120080	-0.027228	-0.674196	1.968646	-0.016754	-0.512127	1.817211	-0.209443	-3.740015	13.475713	0.000000	0.000000	26.782598	0.615380	-4.717692	-0.828499	-10.252605	30.176725	50.792669	76.341058	12.171372	10.261014	19.354265	-12.584663	74.681254	46.658636	81.932832	8.253909	-10.267067
12.133333	-3.528397	-5.103483	89.824684	0.250738	0.778101	0.679708	2.495000	-3.670005	10.509643	5.838169	0.101895	17.854701	-7.082498	0.000000	3.480465	2.281420	-6.794656	9.478143	0.165425	23.443668	6.063275	0.000000	-0.033244	-0.326554	2.403991	-0.061738	-0.434317	2.554240	-0.054617	-0.793984	2.554240	-0.037995	-0.793984	2.103492	-0.030871	-0.665910	1.953243	-0.018996	-0.505833	1.802993	-0.237460	-3.694048	13.370276	0.000000	0.000000	26.751236	0.376293	-5.158178	-0.928199	-10.286393	30.096448	50.820050	76.293192	12.302406	10.499143	19.389668	-12.504366	74.903397	46.587173	81.973405	8.346637	-10.273096
12.150000	-3.524206	-5.059791	89.961227	0.250254	0.778210	0.679376	2.534917	-3.691618	9.984334	6.094887	0.106376	18.230891	-6.472276	0.000000	3.425587	2.287807	-6.989782	9.536995	0.166452	23.347156	6.289182	0.000000	-0.036134	-0.321297	2.382521	-0.067104	-0.427325	2.531428	-0.059364	-0.781201	2.531428	-0.041297	-0.781201	2.084706	-0.033554	-0.655188	1.935798	-0.020647	-0.497689	1.786891	-0.258100	-3.634574	13.250866	0.000000	0.000000	26.687439	0.176445	-5.553780	-1.000019	-10.327364	30.091163	50.824160	76.172597	12.472636	10.833444	19.387597	-12.439455	75.049549	46.541480	82.078786	8.344412	-10.272850
12.166667	-3.517039	-5.023084	90.078742	0.249797	0.778306	0.679084	2.579333	-3.708859	9.522551	6.330681	0.110491	18.597341	-5.907730	0.000000	3.381769	2.290595	-7.212201	9.599788	0.167548	23.242295	6.510402	0.000000	-0.037432	-0.315274	2.358046	-0.069516	-0.419314	2.505423	-0.061498	-0.766557	2.505423	-0.042782	-0.766557	2.063290	-0.034760	-0.642906	1.915912	-0.021389	-0.488359	1.768534	-0.267376	-3.566439	13.114742	0.000000	0.000000	26.609022	0.009641	-5.898456	-1.044076	-10.371495	30.155069	50.800483	76.006045	12.678211	11.215893	19.352721	-12.393299	75.141156	46.520479	82.273247	8.199365	-10.303236
12.183333	-3.509096	-4.997343	90.170608	0.249394	0.778378	0.678838	2.628082	-3.722240	9.152106	6.533642	0.114034	18.933730	-5.425618	0.000000	3.351092	2.288173	-7.493990	9.662341	0.168640	23.141153	6.767649	0.000000	-0.036877	-0.308936	2.331954	-0.068484	-0.410885	2.477701	-0.060585	-0.751147	2.477701	-0.042146	-0.751147	2.040459	-0.034244	-0.629982	1.894712	-0.021071	-0.478542	1.748965	-0.263407	-3.494746	12.969627	0.000000	0.000000	26.534107	-0.117075	-6.161440	-1.062574	-10.415728	30.277130	50.753165	75.791927	12.913924	11.624599	19.279754	-12.370455	75.163016	46.531540	82.565127	7.910512	-10.367346
12.200000	-3.494603	-4.987681	90.266030	0.249007	0.778421	0.678668	2.683367	-3.729738	8.792323	6.701590	0.116965	19.249478	-4.952320	0.000000	3.347999	2.276622	-7.783869	9.733281	0.169878	23.056133	7.041423	0.000000	-0.034659	-0.301502	2.301901	-0.064365	-0.400998	2.445770	-0.056941	-0.733072	2.445770	-0.039612	-0.733072	2.014164	-0.032184	-0.614823	1.870295	-0.019804	-0.467027	1.726426	-0.247567	-3.410652	12.802484	0.000000	0.000000	26.478285	-0.199183	-6.319923	-1.064203	-10.467156	30.439997	50.707923	75.448966	13.118264	12.088759	19.206814	-12.350009	75.195337	46.525025	82.846461	7.532288	-10.563452
12.216667	-3.473375	-5.004461	90.361404	0.248666	0.778415	0.678576	2.744754	-3.724091	8.587042	6.812786	0.118906	19.480016	-4.698431	0.000000	3.387129	2.249222	-8.130558	9.821833	0.171423	23.011427	7.395699	0.000000	-0.029753	-0.293269	2.265974	-0.055255	-0.390048	2.407598	-0.048882	-0.713054	2.407598	-0.034005	-0.713054	1.982728	-0.027629	-0.598034	1.841104	-0.017001	-0.454273	1.699481	-0.212525	-3.317516	12.602670	0.000000	0.000000	26.456206	-0.228558	-6.342800	-1.049361	-10.511689	30.602716	50.659920	75.226953	13.344147	12.517792	19.100096	-12.344872	75.114650	46.545291	83.258706	7.129759	-10.755496
12.233333	-3.447313	-5.038567	90.439963	0.248360	0.778384	0.678586	2.815956	-3.717942	8.352368	6.886181	0.120187	19.679807	-4.368675	0.000000	3.449175	2.216679	-8.488407	9.905538	0.172884	22.998299	7.749012	0.000000	-0.024475	-0.284086	2.224333	-0.045452	-0.377834	2.363354	-0.040210	-0.690726	2.363354	-0.027972	-0.690726	1.946291	-0.022727	-0.579308	1.807271	-0.013985	-0.440049	1.668250	-0.174821	-3.213636	12.371073	0.000000	0.000000	26.474775	-0.188343	-6.220703	-0.981825	-10.577779	30.870026	50.608308	74.835933	13.517271	12.953090	18.967111	-12.359337	74.952712	46.607019	83.384915	6.795863	-10.795532
12.250000	-3.412929	-5.105790	90.543227	0.248078	0.778302	0.678712	2.900681	-3.699441	8.181138	6.910675	0.120614	19.793244	-4.180704	0.000000	3.567554	2.172581	-8.797332	10.010636	0.174719	23.021143	8.084611	0.000000	-0.016704	-0.274615	2.171673	-0.031021	-0.365237	2.307402	-0.027443	-0.667698	2.307402	-0.019091	-0.667698	1.900214	-0.015511	-0.559994	1.764484	-0.009545	-0.425378	1.628755	-0.119316	-3.106495	12.078192	0.000000	0.000000	26.528724	-0.099886	-5.995096	-0.884776	-10.640104	31.158870	50.557486	74.491807	13.667137	13.322332	18.812618	-12.393043	74.673669	46.690269	83.603901	6.551525	-10.795482
